<svg width="30" height="30" viewBox="0 0 30 30" fill="none" xmlns="http://www.w3.org/2000/svg">
<path fill-rule="evenodd" clip-rule="evenodd" d="M14.5714 0C12.6779 0 11.1429 1.53502 11.1429 3.42857V11.1429H3.42857C1.53502 11.1429 0 12.6779 0 14.5714C0 16.465 1.53502 18 3.42857 18H11.1429V26.5714C11.1429 28.465 12.6779 30 14.5714 30C16.465 30 18 28.465 18 26.5714V18H26.5714C28.465 18 30 16.465 30 14.5714C30 12.6779 28.465 11.1429 26.5714 11.1429H18V3.42857C18 1.53502 16.465 0 14.5714 0Z" fill="white"/>
</svg>
