<svg width="60" height="60" viewBox="0 0 60 60" fill="none" xmlns="http://www.w3.org/2000/svg">
<path fill-rule="evenodd" clip-rule="evenodd" d="M26.2859 0C24.0768 0 22.2859 1.79086 22.2859 4V22.2857H4C1.79086 22.2857 0 24.0766 0 26.2857V32C0 34.2091 1.79086 36 4 36H22.2859V56C22.2859 58.2091 24.0768 60 26.2859 60H32.0002C34.2093 60 36.0002 58.2091 36.0002 56V36H56C58.2091 36 60 34.2091 60 32V26.2857C60 24.0766 58.2091 22.2857 56 22.2857H36.0002V4C36.0002 1.79086 34.2093 0 32.0002 0H26.2859Z" fill="white"/>
</svg>
